<mxfile host="65bd71144e">
    <diagram id="p1tr2e1cOp7E919czNDa" name="Page-1">
        <mxGraphModel dx="1887" dy="298" grid="1" gridSize="10" guides="1" tooltips="1" connect="1" arrows="1" fold="1" page="1" pageScale="1" pageWidth="850" pageHeight="1100" math="0" shadow="0">
            <root>
                <mxCell id="0"/>
                <mxCell id="1" parent="0"/>
                <mxCell id="3" value="{&#10;    &quot;signal&quot;: [&#10;        { &quot;name&quot;: &quot;Clk_launch&quot;, &quot;wave&quot;: &quot;p......&quot;, phase:0.1, period: 1},&#10;        { &quot;name&quot;: &quot;Clk_captur&quot;, &quot;wave&quot;: &quot;..p....&quot;, phase:0.1, period: 1 } &#10;    ]&#10;}" style="shadow=0;dashed=0;align=left;strokeWidth=1;labelBackgroundColor=#ffffff;noLabel=1;shape=mxgraph.wavedrom.abstract.timing;" vertex="1" parent="1">
                    <mxGeometry x="-210" y="250" width="800" height="90" as="geometry"/>
                </mxCell>
                <mxCell id="4" value="{&#10;    &quot;signal&quot;: [&#10;        { &quot;name&quot;: &quot;Clk_capt&quot;, &quot;wave&quot;: &quot;..p....&quot; }       &#10;    ]&#10;}" style="shadow=0;dashed=0;align=left;strokeWidth=1;labelBackgroundColor=#ffffff;noLabel=1;shape=mxgraph.wavedrom.abstract.timing;" vertex="1" parent="1">
                    <mxGeometry x="-190" y="350" width="800" height="40" as="geometry"/>
                </mxCell>
            </root>
        </mxGraphModel>
    </diagram>
</mxfile>